<?xml version="1.0" encoding="UTF-8"?>
<svg width="193px" height="125px" viewBox="0 0 193 125" version="1.1" xmlns="http://www.w3.org/2000/svg" xmlns:xlink="http://www.w3.org/1999/xlink">
    <!-- Generator: Sketch 58 (84663) - https://sketch.com -->
    <title>Combined Shape Copy 2</title>
    <desc>Created with Sketch.</desc>
    <g id="Page-1" stroke="none" stroke-width="1" fill="none" fill-rule="evenodd">
        <g id="Desktop" transform="translate(-561.000000, -227.000000)" stroke="#000000" stroke-width="0.5">
            <path d="M612.676379,225.791384 C622.926319,225.791384 632.240723,229.380737 639.139691,235.233299 C644.809825,232.286754 651.397246,230.599694 658.424386,230.599694 C670.077553,230.599694 680.521497,235.239089 687.581517,242.569119 C692.497287,240.526319 697.977187,239.386091 703.754279,239.386091 C725.017242,239.386091 742.254279,254.832267 742.254279,273.886091 C742.254279,274.853123 742.209879,275.810863 742.122807,276.757763 C749.125575,283.005166 753.459846,291.652539 753.459846,301.207058 C753.459846,320.260882 736.222809,335.707058 714.959846,335.707058 C714.20905,335.707058 713.463274,335.6878 712.723099,335.649805 C706.675977,347.60277 693.242968,355.917088 677.642896,355.917088 C663.275471,355.917088 650.746175,348.864779 644.130734,338.412434 C639.189975,340.480607 633.677005,341.635439 627.863036,341.635439 C614.585282,341.635439 602.877412,335.612303 595.956357,326.448737 C577.208722,324.129134 562.770764,309.712662 562.770764,292.274379 C562.770764,282.351429 567.445746,273.406936 574.929694,267.113043 C574.435398,264.908571 574.176379,262.627084 574.176379,260.291384 C574.176379,241.237561 591.413416,225.791384 612.676379,225.791384 Z" id="Combined-Shape-Copy-2" transform="translate(658.115305, 290.854236) rotate(-186.000000) translate(-658.115305, -290.854236) "></path>
        </g>
    </g>
</svg>