<?xml version="1.0" encoding="UTF-8"?>
<svg width="139px" height="97px" viewBox="0 0 139 97" version="1.1" xmlns="http://www.w3.org/2000/svg" xmlns:xlink="http://www.w3.org/1999/xlink">
    <!-- Generator: Sketch 58 (84663) - https://sketch.com -->
    <title>Combined Shape Copy 3</title>
    <desc>Created with Sketch.</desc>
    <g id="Page-1" stroke="none" stroke-width="1" fill="none" fill-rule="evenodd">
        <g id="Desktop" transform="translate(-181.000000, -332.000000)" stroke="#000000" stroke-width="0.5">
            <path d="M218.402344,329.628906 C225.838903,329.628906 232.586032,332.580708 237.535985,337.376566 C241.60675,334.994011 246.345128,333.628906 251.402344,333.628906 C259.49204,333.628906 266.765886,337.121978 271.797877,342.682118 C275.572583,340.730789 279.858784,339.628906 284.402344,339.628906 C299.590174,339.628906 311.902344,351.941076 311.902344,367.128906 C311.902344,367.970892 311.864504,368.80404 311.790431,369.626742 C316.800531,374.607012 319.902344,381.505725 319.902344,389.128906 C319.902344,404.316737 307.590174,416.628906 292.402344,416.628906 C291.73639,416.628906 291.075964,416.605234 290.421864,416.558686 C286.083731,426.040529 276.512437,432.628906 265.402344,432.628906 C255.515569,432.628906 246.847379,427.411528 242.000855,419.579854 C238.226825,421.52838 233.943105,422.628906 229.402344,422.628906 C219.844828,422.628906 211.426083,417.753249 206.497685,410.353512 C193.159023,408.45771 182.902344,396.991096 182.902344,383.128906 C182.902344,375.235716 186.227777,368.119222 191.554053,363.104016 C191.12713,361.180749 190.902344,359.181078 190.902344,357.128906 C190.902344,341.941076 203.214513,329.628906 218.402344,329.628906 Z" id="Combined-Shape-Copy-3" transform="translate(251.402344, 381.128906) rotate(-190.000000) translate(-251.402344, -381.128906) "></path>
        </g>
    </g>
</svg>