<?xml version="1.0" encoding="UTF-8"?>
<svg width="139px" height="85px" viewBox="0 0 139 85" version="1.1" xmlns="http://www.w3.org/2000/svg" xmlns:xlink="http://www.w3.org/1999/xlink">
    <!-- Generator: Sketch 58 (84663) - https://sketch.com -->
    <title>Combined Shape</title>
    <desc>Created with Sketch.</desc>
    <g id="Page-1" stroke="none" stroke-width="1" fill="none" fill-rule="evenodd">
        <g id="Desktop" transform="translate(-174.000000, -158.000000)" stroke="#000000" stroke-width="0.5">
            <path d="M276.5,159 C291.687831,159 304,171.312169 304,186.5 C304,187.341986 303.96216,188.175134 303.888087,188.997836 C308.898187,193.978105 312,200.876819 312,208.5 C312,223.687831 299.687831,236 284.5,236 C281.588867,236 278.783384,235.547658 276.150003,234.709425 C271.249296,239.23488 264.697562,242 257.5,242 C250.616437,242 244.323582,239.470879 239.49998,235.291181 C234.677288,239.470529 228.384039,242 221.5,242 C211.942484,242 203.523739,237.124343 198.595342,229.724606 C185.256679,227.828803 175,216.36219 175,202.5 C175,194.814251 178.152938,187.864911 183.235938,182.874855 C185.010689,169.400858 196.540719,159 210.5,159 C216.691169,159 222.404488,161.045919 227.000749,164.498549 C231.596339,161.045623 237.309279,159 243.5,159 C249.691169,159 255.404488,161.045919 260.000749,164.498549 C264.596339,161.045623 270.309279,159 276.5,159 Z" id="Combined-Shape"></path>
        </g>
    </g>
</svg>