<?xml version="1.0" encoding="UTF-8"?>
<svg width="100px" height="75px" viewBox="0 0 100 75" version="1.1" xmlns="http://www.w3.org/2000/svg" xmlns:xlink="http://www.w3.org/1999/xlink">
    <!-- Generator: Sketch 58 (84663) - https://sketch.com -->
    <title>Combined Shape Copy</title>
    <desc>Created with Sketch.</desc>
    <g id="Page-1" stroke="none" stroke-width="1" fill="none" fill-rule="evenodd">
        <g id="Desktop" transform="translate(-315.000000, -247.000000)" stroke="#000000" stroke-width="0.5">
            <path d="M341.754266,247 C347.232609,247 352.196496,249.257709 355.808637,252.914903 C358.684106,251.274772 361.995919,250.340154 365.5207,250.340154 C371.294597,250.340154 376.497032,252.84804 380.147757,256.859055 C382.852451,255.4591 385.910367,254.670577 389.14796,254.670577 C400.193655,254.670577 409.14796,263.84874 409.14796,275.170577 C409.14796,276.010341 409.098698,276.838312 409.002975,277.651618 C412.61221,281.359407 414.843335,286.476761 414.843335,292.128251 C414.843335,303.450088 405.88903,312.628251 394.843335,312.628251 C394.227463,312.628251 393.618092,312.599718 393.016413,312.54387 C389.755048,319.32305 382.943932,323.986888 375.070087,323.986888 C367.996701,323.986888 361.780953,320.223107 358.225077,314.542837 C355.685866,315.739682 352.858903,316.407315 349.879809,316.407315 C342.898799,316.407315 336.753172,312.741199 333.175471,307.184826 C323.467839,305.778977 316,297.227316 316,286.887842 C316,281.029611 318.397348,275.745309 322.241313,272.009434 C321.922073,270.55964 321.754266,269.049906 321.754266,267.5 C321.754266,256.178163 330.708571,247 341.754266,247 Z" id="Combined-Shape-Copy" transform="translate(365.421668, 285.493444) rotate(-186.000000) translate(-365.421668, -285.493444) "></path>
        </g>
    </g>
</svg>